#!OML:ASF I:\Actors\actors\Patient Classification 1\Patient 1\Session 1\Subject1.ASF
:FULLY-SPECIFIED
:DEGREES
1114
root -0.23239 17.6431 8.13639 20.7293 -11.5717 -9.3722
lowerback 12.8003 -2.85708 6.28911
upperback -2.47147 -2.4875 3.19206
thorax -10.0319 -1.45206 0.440407
lowerneck -8.91144 -7.44452 -4.22764
upperneck 18.6011 -10.6685 5.48502
head 7.72121 -4.9228 1.46055
rclavicle 2.50469e-014 -2.38542e-015
rhumerus -12.9179 33.1794 -98.4246
rradius 137.073
rwrist 12.3541
rhand 28.0844 -26.7224
rfingers 7.12502
rthumb 51.9768 -46.8418
lclavicle 2.50469e-014 -2.38542e-015
lhumerus -24.3139 -30.4288 105.103
lradius 134.118
lwrist 5.35794
lhand -4.20872 -26.0827
lfingers 7.12502
lthumb 21.5535 2.738
rfemur -20.6465 25.7757 19.5111
rtibia 4.42251
rfoot -7.27837 -20.6302
rtoes 0.744621
lfemur -8.05584 -60.6172 0.516332
ltibia -3.35378
lfoot -84.3283 59.842
ltoes 38.9823
1115
root -0.259665 17.6453 8.24811 19.4627 -11.6672 -9.37016
lowerback 11.7494 -3.05499 6.15377
upperback -3.29011 -2.8186 3.29819
thorax -10.3284 -1.61757 0.687001
lowerneck -8.79214 -7.48 -4.75974
upperneck 17.8286 -10.7759 6.39693
head 7.53479 -4.95218 1.83923
rclavicle 4.87022e-015 4.29375e-014
rhumerus -12.975 33.2944 -98.5731
rradius 137.33
rwrist 12.4859
rhand 28.4987 -26.9458
rfingers 7.12502
rthumb 52.3523 -46.8398
lclavicle 4.87022e-015 4.29375e-014
lhumerus -24.477 -30.4361 105.284
lradius 134.33
lwrist 5.04363
lhand -4.69391 -26.2935
lfingers 7.12502
lthumb 21.0875 2.57984
rfemur -18.4819 25.8232 20.5057
rtibia 4.29519
rfoot -7.60786 -20.4799
rtoes 0.593091
lfemur -4.40298 -58.2636 -3.00013
ltibia -3.59669
lfoot -78.8272 60.6565
ltoes 37.1081
1116
root -0.285244 17.6417 8.35619 18.4421 -11.8303 -9.40109
lowerback 10.5851 -3.19165 6.0813
upperback -4.09668 -3.07044 3.39336
thorax -10.5409 -1.74812 0.858087
lowerneck -8.97269 -7.61379 -4.72582
upperneck 17.2746 -10.9156 6.33599
head 7.38889 -5.0308 1.79818
rclavicle 4.87022e-015 1.23246e-014
rhumerus -13.0605 33.2863 -98.7224
rradius 137.554
rwrist 12.636
rhand 29.0048 -26.7251
rfingers 7.12502
rthumb 52.81 -46.337
lclavicle 4.87022e-015 1.23246e-014
lhumerus -24.6383 -30.5268 105.485
lradius 134.519
lwrist 4.42752
lhand -4.91467 -26.7225
lfingers 7.12502
lthumb 20.8754 2.17433
rfemur -16.6599 25.7418 21.3872
rtibia 4.20763
rfoot -7.94265 -20.1742
rtoes 0.361574
lfemur -1.46204 -56.6625 -5.65386
ltibia -3.81164
lfoot -75.2212 61.0821
ltoes 35.6342
1117
root -0.30687 17.6339 8.45902 17.7384 -12.0613 -9.47247
lowerback 9.27685 -3.27884 6.07695
upperback -4.95955 -3.25618 3.49968
thorax -10.7287 -1.85234 0.980398
lowerneck -8.96099 -7.72348 -4.73481
upperneck 16.7419 -11.0167 6.24324
head 7.21462 -5.1005 1.76603
rclavicle -1.39149e-015 1.98785e-015
rhumerus -13.2576 33.2555 -98.8745
rradius 137.818
rwrist 12.7183
rhand 29.3495 -26.9461
rfingers 7.12502
rthumb 53.1212 -46.3614
lclavicle -1.39149e-015 1.98785e-015
lhumerus -24.8709 -30.5248 105.733
lradius 134.675
lwrist 3.7449
lhand -4.71694 -26.8065
lfingers 7.12502
lthumb 21.0654 2.06928
rfemur -15.2805 25.546 22.0888
rtibia 4.12148
rfoot -8.2592 -19.7261
rtoes 0.344337
lfemur 0.926282 -56.0973 -7.70978
ltibia -3.90188
lfoot -74.5284 60.8613
ltoes 35.3337
1118
root -0.327353 17.6255 8.55833 17.2712 -12.2949 -9.55075
lowerback 7.85721 -3.36762 6.06427
upperback -5.85265 -3.45298 3.63568
thorax -10.8793 -1.96104 1.13207
lowerneck -8.77332 -7.80473 -4.68704
upperneck 16.2267 -11.0863 6.10155
head 7.00784 -5.1595 1.7207
rclavicle -4.03533e-014 2.62396e-014
rhumerus -13.4925 33.2952 -99.0356
rradius 138.056
rwrist 12.7147
rhand 29.5446 -27.4708
rfingers 7.12502
rthumb 53.2971 -46.7732
lclavicle -4.03533e-014 2.62396e-014
lhumerus -25.1103 -30.4838 105.989
lradius 134.816
lwrist 3.3949
lhand -4.4476 -26.2325
lfingers 7.12502
lthumb 21.3241 2.61427
rfemur -14.1957 25.4033 22.6283
rtibia 3.9949
rfoot -8.55735 -19.3308
rtoes 0.533736
lfemur 3.07807 -56.4067 -9.52483
ltibia -3.9516
lfoot -75.9709 60.4387
ltoes 35.6917
1119
root -0.346498 17.6168 8.65378 17.0154 -12.5029 -9.6128
lowerback 6.31249 -3.42641 6.0995
upperback -6.7453 -3.61972 3.73783
thorax -10.9571 -2.06096 1.20248
lowerneck -8.76983 -7.95543 -4.51777
upperneck 15.9836 -11.251 5.77666
head 6.90901 -5.26174 1.5787
rclavicle -4.00675e-014 -2.20651e-014
rhumerus -13.6375 33.1712 -99.1565
rradius 138.211
rwrist 12.5535
rhand 29.9929 -27.7881
rfingers 7.12502
rthumb 53.7006 -46.8266
lclavicle -4.00675e-014 -2.20651e-014
lhumerus -25.3426 -30.5568 106.267
lradius 134.866
lwrist 3.21525
lhand -4.07619 -25.7145
lfingers 7.12502
lthumb 21.6808 3.09157
rfemur -13.3686 25.3531 23.0176
rtibia 3.85018
rfoot -8.87656 -19.0564
rtoes 0.85679
lfemur 5.07929 -57.4213 -11.2535
ltibia -3.93631
lfoot -78.8756 59.9491
ltoes 36.3773
